# xmcd CD database file
#
# Track frame offsets:
#	150
#	10166
#	22204
#	33213
#	45235
#	59636
#	73569
#	84254
#	95235
#	108199
#	123169
#	134515
#
# Disc length: 1912 seconds
#
# Revision: 0
# Processed by: cddbd v1.5.2PL0 Copyright (c) Steve Scherf et al.
# Submitted via: CDex 1.70beta2
#
DISCID=9a07760c
DTITLE=Brazilian Jazz Quartet - Coffee And Jazz
DYEAR=1958
DGENRE=Jazz
TTITLE0=The Lonsome Road
TTITLE1=When Your Lover Has Gone
TTITLE2=Cap-Out
TTITLE3=Black Satin
TTITLE4=Makin' Whoopee
TTITLE5=No Moon at All
TTITLE6=Old Devil Moon
TTITLE7=Don't Get Around Much Anymore
TTITLE8=You'd Be So Nice To Come Home To
TTITLE9=I'll Close My Eyes
TTITLE10=Alone
TTITLE11=Too Marvelous For Words
EXTD=YEAR: 1958
EXTT0=
EXTT1=
EXTT2=
EXTT3=
EXTT4=
EXTT5=
EXTT6=
EXTT7=
EXTT8=
EXTT9=
EXTT10=
EXTT11=
PLAYORDER=
